<?xml version="1.0" encoding="UTF-8" standalone="no"?>
<!DOCTYPE svg PUBLIC "-//W3C//DTD SVG 1.1//EN" "http://www.w3.org/Graphics/SVG/1.1/DTD/svg11.dtd">
<svg xmlns:xl="http://www.w3.org/1999/xlink" xmlns="http://www.w3.org/2000/svg" xmlns:dc="http://purl.org/dc/elements/1.1/" version="1.1" viewBox="300 1e3 138.46154 150" width="138.46154" height="150">
  <defs/>
  <metadata> Produced by OmniGraffle 7.12.1 
    <dc:date>2019-11-12 04:22:24 +0000</dc:date>
  </metadata>
  <g id="Canvas_1" stroke="none" stroke-dasharray="none" fill="none" stroke-opacity="1" fill-opacity="1">
    <title>Canvas 1</title>
    <g id="Canvas_1: Layer 1">
      <title>Layer 1</title>
      <g id="Group_231">
        <g id="Graphic_269">
          <circle cx="311.53846" cy="1046.1538" r="11.5384799757911" fill="#e000c0"/>
        </g>
        <g id="Graphic_268">
          <circle cx="311.53846" cy="1103.8462" r="11.5384799757911" fill="#e000c0"/>
        </g>
        <g id="Graphic_267">
          <circle cx="369.23077" cy="1138.4615" r="11.538479975791" fill="#e000c0"/>
        </g>
        <g id="Graphic_266">
          <circle cx="426.9231" cy="1046.1538" r="11.5384799757911" fill="#e000c0"/>
        </g>
        <g id="Graphic_265">
          <circle cx="369.23077" cy="1011.5385" r="11.5384799757911" fill="#e000c0"/>
        </g>
        <g id="Line_264">
          <line x1="379.12725" y1="1017.4764" x2="417.0266" y2="1040.216" stroke="#e000c0" stroke-linecap="round" stroke-linejoin="round" stroke-width="4.6153846"/>
        </g>
        <g id="Line_263">
          <line x1="426.9231" y1="1057.6923" x2="426.9231" y2="1092.3077" stroke="#e000c0" stroke-linecap="round" stroke-linejoin="round" stroke-width="4.6153846"/>
        </g>
        <g id="Line_262">
          <line x1="321.43494" y1="1109.784" x2="359.3343" y2="1132.5236" stroke="#e000c0" stroke-linecap="round" stroke-linejoin="round" stroke-width="4.6153846"/>
        </g>
        <g id="Line_261">
          <line x1="311.53846" y1="1057.6923" x2="311.53846" y2="1092.3077" stroke="#e000c0" stroke-linecap="round" stroke-linejoin="round" stroke-width="4.6153846"/>
        </g>
        <g id="Line_260">
          <line x1="417.0266" y1="1109.784" x2="379.12725" y2="1132.5236" stroke="#e000c0" stroke-linecap="round" stroke-linejoin="round" stroke-width="4.6153846"/>
        </g>
        <g id="Line_259">
          <line x1="359.3343" y1="1017.4764" x2="321.43494" y2="1040.216" stroke="#e000c0" stroke-linecap="round" stroke-linejoin="round" stroke-width="4.6153846"/>
        </g>
        <g id="Line_258">
          <line x1="415.3846" y1="1103.8462" x2="323.07693" y2="1103.8462" stroke="#e000c0" stroke-linecap="round" stroke-linejoin="round" stroke-width="4.6153846"/>
        </g>
        <g id="Line_257">
          <line x1="375.3475" y1="1021.3252" x2="420.80635" y2="1094.0594" stroke="#e000c0" stroke-linecap="round" stroke-linejoin="round" stroke-width="4.6153846"/>
        </g>
        <g id="Line_256">
          <line x1="363.11405" y1="1021.3252" x2="317.6552" y2="1094.0594" stroke="#e000c0" stroke-linecap="round" stroke-linejoin="round" stroke-width="4.6153846"/>
        </g>
        <g id="Graphic_255">
          <circle cx="426.9231" cy="1103.8462" r="11.5384799757911" fill="#e000c0"/>
        </g>
        <g id="Group_232">
          <g id="Graphic_254">
            <path d="M 390.63863 1108.3946 L 392.86283 1112.247 C 393.2723 1112.9562 393.0293 1113.863 392.3201 1114.2725 L 391.678 1114.6432 C 390.9688 1115.0527 390.06194 1114.8097 389.6525 1114.1005 C 389.6525 1114.1005 389.6525 1114.1005 389.6525 1114.1005 L 387.4283 1110.248 C 387.01882 1109.5388 387.2618 1108.632 387.97103 1108.2225 L 388.6131 1107.8518 C 389.3223 1107.4424 390.22917 1107.6854 390.63863 1108.3946 Z" fill="#ffd579"/>
            <path d="M 390.63863 1108.3946 L 392.86283 1112.247 C 393.2723 1112.9562 393.0293 1113.863 392.3201 1114.2725 L 391.678 1114.6432 C 390.9688 1115.0527 390.06194 1114.8097 389.6525 1114.1005 C 389.6525 1114.1005 389.6525 1114.1005 389.6525 1114.1005 L 387.4283 1110.248 C 387.01882 1109.5388 387.2618 1108.632 387.97103 1108.2225 L 388.6131 1107.8518 C 389.3223 1107.4424 390.22917 1107.6854 390.63863 1108.3946 Z" stroke="black" stroke-linecap="round" stroke-linejoin="round" stroke-width=".37069895"/>
          </g>
          <g id="Graphic_253">
            <path d="M 346.15476 1111.3868 L 348.37895 1107.5344 C 348.7884 1106.8251 349.6953 1106.5822 350.4045 1106.9916 C 350.4045 1106.9916 350.4045 1106.9916 350.4045 1106.9916 L 351.04656 1107.3623 C 351.75577 1107.7718 351.99876 1108.6786 351.5893 1109.3879 L 349.3651 1113.2403 C 348.95564 1113.9495 348.0488 1114.1925 347.33957 1113.783 C 347.33957 1113.783 347.33957 1113.783 347.33957 1113.783 L 346.6975 1113.4123 C 345.9883 1113.0028 345.7453 1112.096 346.15476 1111.3868 C 346.15476 1111.3868 346.15476 1111.3868 346.15476 1111.3868 Z" fill="#ffd579"/>
            <path d="M 346.15476 1111.3868 L 348.37895 1107.5344 C 348.7884 1106.8251 349.6953 1106.5822 350.4045 1106.9916 C 350.4045 1106.9916 350.4045 1106.9916 350.4045 1106.9916 L 351.04656 1107.3623 C 351.75577 1107.7718 351.99876 1108.6786 351.5893 1109.3879 L 349.3651 1113.2403 C 348.95564 1113.9495 348.0488 1114.1925 347.33957 1113.783 C 347.33957 1113.783 347.33957 1113.783 347.33957 1113.783 L 346.6975 1113.4123 C 345.9883 1113.0028 345.7453 1112.096 346.15476 1111.3868 C 346.15476 1111.3868 346.15476 1111.3868 346.15476 1111.3868 Z" stroke="black" stroke-linecap="round" stroke-linejoin="round" stroke-width=".37069895"/>
          </g>
          <g id="Graphic_252">
            <path d="M 340.13415 1077.1709 L 344.31427 1075.6495 C 345.0838 1075.3694 345.9347 1075.7662 346.2148 1076.5357 C 346.2148 1076.5357 346.2148 1076.5357 346.2148 1076.5357 L 346.46836 1077.2324 C 346.74845 1078.002 346.35167 1078.8528 345.58213 1079.1329 L 341.402 1080.6544 C 340.63248 1080.9344 339.7816 1080.5377 339.5015 1079.7681 C 339.5015 1079.7681 339.5015 1079.7681 339.5015 1079.7681 L 339.24793 1079.0714 C 338.96784 1078.3019 339.3646 1077.451 340.13415 1077.1709 C 340.13415 1077.1709 340.13415 1077.1709 340.13415 1077.1709 Z" fill="#ffd579"/>
            <path d="M 340.13415 1077.1709 L 344.31427 1075.6495 C 345.0838 1075.3694 345.9347 1075.7662 346.2148 1076.5357 C 346.2148 1076.5357 346.2148 1076.5357 346.2148 1076.5357 L 346.46836 1077.2324 C 346.74845 1078.002 346.35167 1078.8528 345.58213 1079.1329 L 341.402 1080.6544 C 340.63248 1080.9344 339.7816 1080.5377 339.5015 1079.7681 C 339.5015 1079.7681 339.5015 1079.7681 339.5015 1079.7681 L 339.24793 1079.0714 C 338.96784 1078.3019 339.3646 1077.451 340.13415 1077.1709 C 340.13415 1077.1709 340.13415 1077.1709 340.13415 1077.1709 Z" stroke="black" stroke-linecap="round" stroke-linejoin="round" stroke-width=".37069895"/>
          </g>
          <g id="Graphic_251">
            <path d="M 394.14727 1074.2547 L 398.3274 1075.7761 C 399.09692 1076.0562 399.4937 1076.9071 399.2136 1077.6766 L 398.96004 1078.3733 C 398.67995 1079.1428 397.82906 1079.5396 397.0595 1079.2595 C 397.0595 1079.2595 397.0595 1079.2595 397.0595 1079.2595 L 392.8794 1077.7381 C 392.10987 1077.458 391.7131 1076.6071 391.9932 1075.8376 L 392.24675 1075.1409 C 392.52684 1074.3714 393.37773 1073.9746 394.14727 1074.2547 C 394.14727 1074.2547 394.14727 1074.2547 394.14727 1074.2547 Z" fill="#ffd579"/>
            <path d="M 394.14727 1074.2547 L 398.3274 1075.7761 C 399.09692 1076.0562 399.4937 1076.9071 399.2136 1077.6766 L 398.96004 1078.3733 C 398.67995 1079.1428 397.82906 1079.5396 397.0595 1079.2595 C 397.0595 1079.2595 397.0595 1079.2595 397.0595 1079.2595 L 392.8794 1077.7381 C 392.10987 1077.458 391.7131 1076.6071 391.9932 1075.8376 L 392.24675 1075.1409 C 392.52684 1074.3714 393.37773 1073.9746 394.14727 1074.2547 C 394.14727 1074.2547 394.14727 1074.2547 394.14727 1074.2547 Z" stroke="black" stroke-linecap="round" stroke-linejoin="round" stroke-width=".37069895"/>
          </g>
          <g id="Group_248">
            <g id="Graphic_250">
              <circle cx="350.97385" cy="1045.9451" r="5.5604931419942" fill="#76d6ff"/>
              <circle cx="350.97385" cy="1045.9451" r="5.5604931419942" stroke="black" stroke-linecap="round" stroke-linejoin="round" stroke-width=".37069895"/>
            </g>
            <g id="Graphic_249">
              <circle cx="350.97385" cy="1045.9451" r="1.853497713998" fill="black"/>
              <circle cx="350.97385" cy="1045.9451" r="1.853497713998" stroke="black" stroke-linecap="round" stroke-linejoin="round" stroke-width=".37069895"/>
            </g>
          </g>
          <g id="Group_245">
            <g id="Graphic_247">
              <circle cx="388.04374" cy="1045.9451" r="5.56049314199421" fill="#76d6ff"/>
              <circle cx="388.04374" cy="1045.9451" r="5.56049314199421" stroke="black" stroke-linecap="round" stroke-linejoin="round" stroke-width=".37069895"/>
            </g>
            <g id="Graphic_246">
              <circle cx="388.04374" cy="1045.9451" r="1.853497713998" fill="black"/>
              <circle cx="388.04374" cy="1045.9451" r="1.853497713998" stroke="black" stroke-linecap="round" stroke-linejoin="round" stroke-width=".37069895"/>
            </g>
          </g>
          <g id="Graphic_244">
            <path d="M 363.9483 1040.3846 L 375.0693 1040.3846 C 385.30585 1040.3846 393.60423 1048.683 393.60423 1058.9196 L 393.60423 1095.9895 C 393.60423 1106.226 385.30585 1114.5244 375.0693 1114.5244 L 363.9483 1114.5244 C 353.71174 1114.5244 345.41336 1106.226 345.41336 1095.9895 L 345.41336 1058.9196 C 345.41336 1048.683 353.71174 1040.3846 363.9483 1040.3846 Z" fill="#76d6ff"/>
            <path d="M 363.9483 1040.3846 L 375.0693 1040.3846 C 385.30585 1040.3846 393.60423 1048.683 393.60423 1058.9196 L 393.60423 1095.9895 C 393.60423 1106.226 385.30585 1114.5244 375.0693 1114.5244 L 363.9483 1114.5244 C 353.71174 1114.5244 345.41336 1106.226 345.41336 1095.9895 L 345.41336 1058.9196 C 345.41336 1048.683 353.71174 1040.3846 363.9483 1040.3846 Z" stroke="black" stroke-linecap="round" stroke-linejoin="round" stroke-width=".37069895"/>
          </g>
          <g id="Group_241">
            <g id="Graphic_243">
              <circle cx="356.53433" cy="1058.9196" r="7.4139908559922" fill="white"/>
              <circle cx="356.53433" cy="1058.9196" r="7.4139908559922" stroke="black" stroke-linecap="round" stroke-linejoin="round" stroke-width=".37069895"/>
            </g>
            <g id="Graphic_242">
              <circle cx="354.31014" cy="1059.661" r="2.22419725679768" fill="black"/>
              <circle cx="354.31014" cy="1059.661" r="2.22419725679768" stroke="black" stroke-linecap="round" stroke-linejoin="round" stroke-width=".37069895"/>
            </g>
          </g>
          <g id="Group_238">
            <g id="Graphic_240">
              <circle cx="382.48326" cy="1058.9196" r="7.41399085599219" fill="white"/>
              <circle cx="382.48326" cy="1058.9196" r="7.41399085599219" stroke="black" stroke-linecap="round" stroke-linejoin="round" stroke-width=".37069895"/>
            </g>
            <g id="Graphic_239">
              <circle cx="380.25906" cy="1059.661" r="2.2241972567977" fill="black"/>
              <circle cx="380.25906" cy="1059.661" r="2.2241972567977" stroke="black" stroke-linecap="round" stroke-linejoin="round" stroke-width=".37069895"/>
            </g>
          </g>
          <g id="Group_233">
            <g id="Graphic_237">
              <path d="M 367.09925 1066.3335 L 367.84065 1066.3335 C 368.65957 1066.3335 369.32344 1066.9974 369.32344 1067.8163 L 369.32344 1072.2647 C 369.32344 1073.0837 368.65957 1073.7475 367.84065 1073.7475 L 367.09925 1073.7475 C 366.28032 1073.7475 365.61645 1073.0837 365.61645 1072.2647 L 365.61645 1067.8163 C 365.61645 1066.9974 366.28032 1066.3335 367.09925 1066.3335 Z" fill="white"/>
              <path d="M 367.09925 1066.3335 L 367.84065 1066.3335 C 368.65957 1066.3335 369.32344 1066.9974 369.32344 1067.8163 L 369.32344 1072.2647 C 369.32344 1073.0837 368.65957 1073.7475 367.84065 1073.7475 L 367.09925 1073.7475 C 366.28032 1073.7475 365.61645 1073.0837 365.61645 1072.2647 L 365.61645 1067.8163 C 365.61645 1066.9974 366.28032 1066.3335 367.09925 1066.3335 Z" stroke="black" stroke-linecap="round" stroke-linejoin="round" stroke-width=".37069895"/>
            </g>
            <g id="Graphic_236">
              <path d="M 370.80624 1066.3335 L 371.54764 1066.3335 C 372.36656 1066.3335 373.03043 1066.9974 373.03043 1067.8163 L 373.03043 1072.2647 C 373.03043 1073.0837 372.36656 1073.7475 371.54764 1073.7475 L 370.80624 1073.7475 C 369.9873 1073.7475 369.32344 1073.0837 369.32344 1072.2647 L 369.32344 1067.8163 C 369.32344 1066.9974 369.9873 1066.3335 370.80624 1066.3335 Z" fill="white"/>
              <path d="M 370.80624 1066.3335 L 371.54764 1066.3335 C 372.36656 1066.3335 373.03043 1066.9974 373.03043 1067.8163 L 373.03043 1072.2647 C 373.03043 1073.0837 372.36656 1073.7475 371.54764 1073.7475 L 370.80624 1073.7475 C 369.9873 1073.7475 369.32344 1073.0837 369.32344 1072.2647 L 369.32344 1067.8163 C 369.32344 1066.9974 369.9873 1066.3335 370.80624 1066.3335 Z" stroke="black" stroke-linecap="round" stroke-linejoin="round" stroke-width=".37069895"/>
            </g>
            <g id="Graphic_235">
              <path d="M 365.4311 1064.1093 L 373.5865 1064.1093 C 374.4054 1064.1093 375.0693 1064.7732 375.0693 1065.5921 L 375.0693 1066.3335 C 375.0693 1067.1525 374.4054 1067.8163 373.5865 1067.8163 L 365.4311 1067.8163 C 364.6122 1067.8163 363.9483 1067.1525 363.9483 1066.3335 L 363.9483 1065.5921 C 363.9483 1064.7732 364.6122 1064.1093 365.4311 1064.1093 Z" fill="#ffd579"/>
              <path d="M 365.4311 1064.1093 L 373.5865 1064.1093 C 374.4054 1064.1093 375.0693 1064.7732 375.0693 1065.5921 L 375.0693 1066.3335 C 375.0693 1067.1525 374.4054 1067.8163 373.5865 1067.8163 L 365.4311 1067.8163 C 364.6122 1067.8163 363.9483 1067.1525 363.9483 1066.3335 L 363.9483 1065.5921 C 363.9483 1064.7732 364.6122 1064.1093 365.4311 1064.1093 Z" stroke="black" stroke-linecap="round" stroke-linejoin="round" stroke-width=".37069895"/>
            </g>
            <g id="Graphic_234">
              <ellipse cx="369.1381" cy="1063.924" rx="2.78024657099705" ry="1.11209862839867" fill="black"/>
              <ellipse cx="369.1381" cy="1063.924" rx="2.78024657099705" ry="1.11209862839867" stroke="black" stroke-linecap="round" stroke-linejoin="round" stroke-width=".37069895"/>
            </g>
          </g>
        </g>
      </g>
    </g>
  </g>
</svg>
